<?xml version="1.0" encoding="utf-8"?>
<!-- Generator: Adobe Illustrator 28.4.1, SVG Export Plug-In . SVG Version: 6.00 Build 0)  -->
<svg version="1.1" id="Layer_1" xmlns="http://www.w3.org/2000/svg" xmlns:xlink="http://www.w3.org/1999/xlink" x="0px" y="0px"
	 viewBox="0 0 304 144" style="enable-background:new 0 0 304 144;" xml:space="preserve">
<style type="text/css">
	.st0{fill:#FFC017;stroke:#000000;stroke-width:2;}
</style>
<path class="st0" d="M152,1.5l17.5,19.3l0.5,0.6l0.7-0.4l29.9-15.6l3.2,20.5L204,27l1.1-0.3l38.3-10l-10.6,19.2l-0.9,1.6l1.9-0.2
	l42-3.5L253,50.1l-2.3,1.6l2.8,0.2l41.1,3.1l-32.4,11.7l-3.1,1.1l3.2,0.8l36.2,9.1l-39.1,6.2l-3.1,0.5l2.8,1.4L287,99.9l-42.1-0.2
	l-2.3,0l1.6,1.7l16.9,17.9l-40.7-6.8l-1.4-0.2l0.3,1.4l3.9,20.1l-34.6-13l-0.8-0.3l-0.4,0.8l-10.5,20.3l-24.1-17.8l-0.6-0.4
	l-0.6,0.4l-24.1,17.8l-10.5-20.3l-0.4-0.8l-0.8,0.3l-34.6,13l3.9-20.1l0.3-1.4l-1.4,0.2l-40.7,6.8l16.9-17.9l1.6-1.7l-2.3,0L17,99.9
	l27.9-14.1l2.8-1.4l-3.1-0.5L5.5,77.7l36.2-9.1l3.2-0.8l-3.1-1.1L9.4,55l41.1-3.1l2.8-0.2L51,50.1L28.3,33.9l42,3.5l1.9,0.2
	l-0.9-1.6L60.6,16.7l38.3,10L100,27l0.2-1.1l3.2-20.5L133.3,21l0.7,0.4l0.5-0.6L152,1.5z"/>
<g>
	<path d="M59,76.4c6.6,0.4,11,0.5,13.4,0.5c0.6,0,1-0.2,1.3-0.5c0.3-0.3,0.5-0.8,0.5-1.3v-3.2h-8.3c-2.5,0-4.4-0.6-5.5-1.7
		c-1.1-1.1-1.7-3-1.7-5.5v-1.1c0-2.5,0.6-4.3,1.7-5.5c1.1-1.1,3-1.7,5.5-1.7h12.6v5H67.3c-1.4,0-2.2,0.7-2.2,2.2v0.7
		c0,1.4,0.7,2.2,2.2,2.2h6.5c2.4,0,4.1,0.6,5.2,1.7c1.1,1.1,1.7,2.8,1.7,5.2v1.8c0,2.4-0.6,4.1-1.7,5.2c-1.1,1.1-2.8,1.7-5.2,1.7
		c-1.2,0-2.5,0-3.9-0.1l-3.3-0.1c-2.4-0.1-5-0.3-7.6-0.5V76.4z"/>
	<path d="M100.1,56.4h6.5v18.4c0,2.5-0.6,4.4-1.7,5.5c-1.1,1.1-3,1.7-5.5,1.7h-8.3c-2.5,0-4.4-0.6-5.5-1.7c-1.1-1.1-1.7-3-1.7-5.5
		V56.4h6.5v18.4c0,1.4,0.7,2.2,2.2,2.2h5.4c1.4,0,2.2-0.7,2.2-2.2V56.4z"/>
	<path d="M132.8,81.6H126l-8.6-15.1v15.1h-6.5V56.4h6.8l8.6,15.1V56.4h6.5V81.6z"/>
	<path d="M137.1,56.4h15.1c2.5,0,4.4,0.6,5.5,1.7c1.1,1.1,1.7,3,1.7,5.5v3.6c0,2.5-0.6,4.4-1.7,5.5c-1.1,1.1-3,1.7-5.5,1.7h-8.6v7.2
		h-6.5V56.4z M153,63.6c0-1.4-0.7-2.2-2.2-2.2h-7.2v7.9h7.2c1.4,0,2.2-0.7,2.2-2.2V63.6z"/>
	<path d="M178.9,56.4h6.5v18.4c0,2.5-0.6,4.4-1.7,5.5s-3,1.7-5.5,1.7h-8.3c-2.5,0-4.4-0.6-5.5-1.7c-1.1-1.1-1.7-3-1.7-5.5V56.4h6.5
		v18.4c0,1.4,0.7,2.2,2.2,2.2h5.4c1.4,0,2.2-0.7,2.2-2.2V56.4z"/>
	<path d="M211.3,67.6l-5,9h-5l-5-9v14h-6.5V56.4h6.8l7.2,13.3l7.2-13.3h6.8v25.2h-6.5V67.6z"/>
	<path d="M222.1,56.4h15.1c2.5,0,4.3,0.6,5.5,1.7c1.1,1.1,1.7,3,1.7,5.5v3.6c0,2.5-0.6,4.4-1.7,5.5c-1.1,1.1-3,1.7-5.5,1.7h-8.6v7.2
		h-6.5V56.4z M238,63.6c0-1.4-0.7-2.2-2.2-2.2h-7.2v7.9h7.2c1.4,0,2.2-0.7,2.2-2.2V63.6z"/>
</g>
</svg>
